Results
version=1
nRows=22
nColumns=24
inDegrees=yes
endheader
time	pelvis_tilt	pelvis_list	pelvis_rotation	pelvis_tx	pelvis_ty	pelvis_tz	hip_flexion_r	hip_adduction_r	hip_rotation_r	knee_angle_r	ankle_angle_r	subtalar_angle_r	mtp_angle_r	hip_flexion_l	hip_adduction_l	hip_rotation_l	knee_angle_l	ankle_angle_l	subtalar_angle_l	mtp_angle_l	lumbar_extension	lumbar_bending	lumbar_rotation
      0.82883333	      0.45907318	      4.89803814	     -3.05974494	     -0.41914830	      1.02007558	      0.26574359	     11.67164731	     -1.45265891	      0.37782824	    -19.61155355	      3.33909180	     -8.17488793	     12.07900329	     12.42068661	      3.64952462	     -8.23643366	    -63.01194627	     -1.16322497	    -15.62129052	      3.56578116	     -2.85415759	     -5.39465609	      3.84637458
      0.83300000	      0.46814044	      4.98300287	     -3.23656914	     -0.41408208	      1.02087710	      0.26602684	     11.22278739	     -1.56571592	      0.37149633	    -19.31606198	      3.51728956	     -7.88584712	     12.14448407	     12.92722770	      3.70133965	     -8.43210042	    -62.58231987	     -0.86479470	    -15.15112199	      3.66664047	     -2.87032721	     -5.46967942	      4.24920626
      0.83716667	      0.45597033	      5.06524743	     -3.42128021	     -0.40900616	      1.02160762	      0.26631320	     10.79819054	     -1.67533890	      0.37241446	    -19.01819561	      3.63390960	     -7.63249989	     12.19850864	     13.44013788	      3.74033468	     -8.64300456	    -62.09893012	     -0.58717069	    -14.66122712	      3.75850633	     -2.83913232	     -5.53179053	      4.52382500
      0.84133333	      0.45525552	      5.14707322	     -3.60709745	     -0.40395241	      1.02232602	      0.26659452	     10.35950670	     -1.78714020	      0.37588575	    -18.71229684	      3.76749616	     -7.35145748	     12.26194897	     13.92889830	      3.78110097	     -8.84314467	    -61.56777195	     -0.31435821	    -14.15816736	      3.87108024	     -2.84188790	     -5.60524636	      4.84049526
      0.84550000	      0.45508770	      5.22637267	     -3.79760614	     -0.39890973	      1.02299980	      0.26688190	      9.92443670	     -1.89742502	      0.37888179	    -18.41195702	      3.87533280	     -7.08888426	     12.31910997	     14.40329700	      3.81311453	     -9.05114493	    -60.98858780	     -0.06388065	    -13.65360970	      3.97885642	     -2.83850012	     -5.66921010	      5.11957336
      0.84966667	      0.44737845	      5.28881475	     -3.98264301	     -0.39388390	      1.02360867	      0.26715870	      9.49456160	     -1.98991079	      0.38378267	    -18.10497875	      3.99465047	     -6.82307116	     12.37823277	     14.87666836	      3.82390267	     -9.24948913	    -60.37875045	      0.18901423	    -13.14561810	      4.09455524	     -2.83116564	     -5.72003861	      5.41595402
      0.85383333	      0.45060694	      5.35496027	     -4.16777397	     -0.38887264	      1.02420531	      0.26742762	      9.05144115	     -2.09072565	      0.38221782	    -17.79040088	      4.10890847	     -6.52011352	     12.53451025	     15.32320677	      3.84274924	     -9.43711029	    -59.71624565	      0.39376025	    -12.72294108	      4.41105322	     -2.84605047	     -5.77693246	      5.87325587
      0.85800000	      0.43957459	      5.41682856	     -4.35244955	     -0.38387113	      1.02472257	      0.26770677	      8.63134060	     -2.18294354	      0.39603241	    -17.49298230	      4.22325681	     -6.31878749	     12.58051826	     15.77177617	      3.84521884	     -9.63705308	    -59.01629515	      0.62190927	    -12.21082710	      4.50989998	     -2.83047262	     -5.82849031	      6.00925370
      0.86216667	      0.43333414	      5.45871925	     -4.52759294	     -0.37887446	      1.02521825	      0.26797494	      8.19303440	     -2.25598497	      0.40240017	    -17.17059640	      4.32216592	     -6.07965190	     12.62681535	     16.20197276	      3.82768301	     -9.81831271	    -58.28231758	      0.83129801	    -11.73286054	      4.61095776	     -2.83480626	     -5.86163841	      6.25717393
      0.86633333	      0.44087196	      5.48553893	     -4.69342786	     -0.37390027	      1.02567117	      0.26822574	      7.74042826	     -2.31599938	      0.39805720	    -16.85554484	      4.49305542	     -5.83472488	     12.70751093	     16.60690469	      3.79797506	     -9.98063007	    -57.52076769	      1.05092683	    -11.30423121	      4.79086330	     -2.85817246	     -5.87343433	      6.63571902
      0.87050000	      0.43711728	      5.51923928	     -4.86555686	     -0.36892662	      1.02607795	      0.26847791	      7.30373023	     -2.38214759	      0.41120926	    -16.54211985	      4.59824828	     -5.61783383	     12.78882696	     17.00513199	      3.77401744	    -10.14740780	    -56.70594795	      1.22013885	    -10.89293639	      4.97886958	     -2.86364927	     -5.88892927	      6.92392539
      0.87466667	      0.41044818	      5.53919344	     -5.03462107	     -0.36395992	      1.02639810	      0.26872443	      6.89142562	     -2.43369644	      0.41063273	    -16.22539808	      4.67263090	     -5.39762979	     12.96072620	     17.41518812	      3.72971879	    -10.31398921	    -55.86112338	      1.33760737	    -10.57189904	      5.39690706	     -2.83818652	     -5.89411689	      7.30829118
      0.87883333	      0.40890252	      5.57975725	     -5.19805639	     -0.35901037	      1.02673162	      0.26897010	      6.45808947	     -2.50816554	      0.43163409	    -15.92258812	      4.78144920	     -5.24106224	     12.99798575	     17.77800981	      3.71505925	    -10.46647027	    -54.95739074	      1.46225506	    -10.20765709	      5.48781734	     -2.84816959	     -5.92520255	      7.40404570
      0.88300000	      0.38666364	      5.58460857	     -5.34609944	     -0.35406046	      1.02696563	      0.26919476	      6.03656811	     -2.54377339	      0.43614032	    -15.60652162	      4.88213113	     -5.05410367	     13.03699088	     18.15526017	      3.65865814	    -10.60321256	    -54.04680240	      1.57949980	     -9.87974320	      5.58335209	     -2.84095995	     -5.91317988	      7.62853773
      0.88716667	      0.37804805	      5.57516890	     -5.48413989	     -0.34912752	      1.02717385	      0.26940389	      5.59500928	     -2.56605376	      0.43967484	    -15.28561428	      5.02749693	     -4.87883341	     13.09529863	     18.50477195	      3.59266427	    -10.71971899	    -53.10918321	      1.69349862	     -9.60829518	      5.73099892	     -2.85801596	     -5.89055976	      7.94590148
      0.89133333	      0.35841220	      5.56390029	     -5.61888830	     -0.34419917	      1.02733501	      0.26960621	      5.16638085	     -2.58535553	      0.45132081	    -14.96564218	      5.12383396	     -4.72651460	     13.15567861	     18.84795104	      3.52612359	    -10.82756540	    -52.12743093	      1.75693005	     -9.37168483	      5.89064787	     -2.85908022	     -5.85944595	      8.20154484
      0.89550000	      0.31901560	      5.56224763	     -5.74437313	     -0.33926410	      1.02743135	      0.26979540	      4.76283739	     -2.61492871	      0.44970258	    -14.65158942	      5.18862041	     -4.59176885	     13.18416705	     19.19394678	      3.47226716	    -10.92684260	    -51.10046272	      1.76550433	     -9.18807430	      5.96501470	     -2.82986382	     -5.83993907	      8.34169113
      0.89966667	      0.31563208	      5.54486391	     -5.86606100	     -0.33433821	      1.02753878	      0.26997716	      4.31333616	     -2.63160021	      0.45231255	    -14.32924491	      5.29115508	     -4.44985353	     13.21673221	     19.48389439	      3.40770350	    -11.01318863	    -50.04235952	      1.78107599	     -9.01869186	      6.05027962	     -2.85428351	     -5.80798853	      8.57088363
      0.90383333	      0.28948748	      5.51263832	     -5.97092577	     -0.32941171	      1.02757145	      0.27013877	      3.88374249	     -2.62979353	      0.45127714	    -14.00409352	      5.38334506	     -4.32594871	     13.24566927	     19.78502141	      3.33110882	    -11.07398335	    -48.96024051	      1.76780679	     -8.89438834	      6.12794536	     -2.85261445	     -5.75745887	      8.77411616
      0.90800000	      0.25465908	      5.47384922	     -6.06596047	     -0.32449442	      1.02753481	      0.27027851	      3.46519750	     -2.62087911	      0.44699701	    -13.68615591	      5.48398813	     -4.21318355	     13.27285222	     20.08128445	      3.25152135	    -11.11978655	    -47.84924537	      1.73765400	     -8.80077935	      6.20163381	     -2.84482302	     -5.69762842	      8.97131686
      0.91216667	      0.22923063	      5.42782395	     -6.15286249	     -0.31957216	      1.02747804	      0.27040815	      3.03158127	     -2.60532020	      0.43959973	    -13.36202547	      5.57826492	     -4.11466024	     13.29665377	     20.34883745	      3.17012510	    -11.15142384	    -46.70334330	      1.67924308	     -8.73385638	      6.26695392	     -2.85012313	     -5.63141137	      9.15071124
      0.91633333	      0.14527085	      5.36490599	     -6.21069369	     -0.31464315	      1.02727364	      0.27051240	      2.65010871	     -2.56244614	      0.43569677	    -13.02712286	      5.69589718	     -4.02400150	     13.30836051	     20.67489053	      3.06731473	    -11.15947753	    -45.55684976	      1.62673699	     -8.67435012	      6.29443675	     -2.79998981	     -5.54569441	      9.24564014
